# File created by Blade
# Date/Time:  Wed Jan 21 14:43:55 2015
# Frame Rate: 120.000 fps
#------------------------------------------------------
:FULLY-SPECIFIED
:DEGREES
285
root 21.611094 35.420561 -20.579474 -172.038852 2.500484 185.119023
Spine -9.336728 2.397648 -27.510182
Head 1.542500 -17.893862 -3.885881
LeftShoulder -8.612629 -7.856158 8.276713
LeftArm -58.800414 78.300343 -97.941780
LeftForeArm 24.562203 -0.000000 116.999842
LeftHand -0.268024 -0.000000 17.452420
LeftHandThumb1 -26.253704 0.000000 33.147579
RightShoulder -12.122030 -28.219504 -1.980595
RightArm 26.320037 -55.845264 37.656373
RightForeArm -39.664477 -0.000000 89.421728
RightHand 9.551312 -0.000000 -18.014709
RightHandThumb1 -24.326973 -0.000000 -32.862282
LeftUpLeg 0.800282 16.829976 9.774133
LeftLeg -7.359380 -0.000000 0.000000
LeftFoot -18.405504 27.381148 -12.762339
LeftToeBase 28.713024 -0.000000 -0.000000
RightUpLeg -1.456568 -3.987041 6.145507
RightLeg -2.942035 -0.000000 0.000000
RightFoot -19.770496 -20.752883 15.130295
RightToeBase 24.838711 -0.000000 -0.000000
286
root 21.631743 35.421004 -20.574514 -172.065475 2.576033 185.188840
Spine -9.328610 2.607567 -28.029564
Head 1.725242 -18.370166 -3.999323
LeftShoulder -8.508354 -7.949239 8.272090
LeftArm -58.553904 78.227551 -97.580907
LeftForeArm 24.753294 0.000000 117.359444
LeftHand -0.425081 0.000000 17.233731
LeftHandThumb1 -26.253704 0.000000 33.147579
RightShoulder -12.079415 -28.343430 -2.059280
RightArm 26.804400 -56.026239 37.430151
RightForeArm -40.230686 -0.000000 89.071168
RightHand 9.353264 -0.000000 -18.874637
RightHandThumb1 -24.326973 -0.000000 -32.862282
LeftUpLeg 0.860994 16.967627 9.881771
LeftLeg -7.386663 -0.000000 0.000000
LeftFoot -18.375676 27.324750 -12.767070
LeftToeBase 28.720747 -0.000000 -0.000000
RightUpLeg -1.462437 -3.934461 6.234208
RightLeg -2.882840 -0.000000 0.000000
RightFoot -19.760561 -20.717886 15.156030
RightToeBase 24.917744 -0.000000 -0.000000
287
root 21.652418 35.420681 -20.570648 -172.091803 2.658773 185.257660
Spine -9.320689 2.805056 -28.544409
Head 1.867033 -18.834794 -4.129991
LeftShoulder -8.393348 -8.043212 8.284277
LeftArm -58.603672 78.107786 -97.538446
LeftForeArm 24.831093 0.000000 117.665453
LeftHand -0.496125 -0.000000 17.180696
LeftHandThumb1 -26.253704 0.000000 33.147579
RightShoulder -11.965000 -28.238009 -2.215700
RightArm 26.913603 -56.334070 37.554668
RightForeArm -40.417590 -0.000000 88.726714
RightHand 9.403073 -0.000000 -19.436552
RightHandThumb1 -24.326973 -0.000000 -32.862282
LeftUpLeg 0.923465 17.093186 9.989828
LeftLeg -7.406294 -0.000000 0.000000
LeftFoot -18.363828 27.297091 -12.763998
LeftToeBase 28.756970 -0.000000 -0.000000
RightUpLeg -1.468055 -3.904822 6.324239
RightLeg -2.824148 -0.000000 0.000000
RightFoot -19.739734 -20.603149 15.163599
RightToeBase 25.016492 -0.000000 -0.000000
288
root 21.674407 35.420755 -20.566612 -172.134091 2.738306 185.332692
Spine -9.282131 3.002028 -29.067728
Head 1.967070 -19.252061 -4.201674
LeftShoulder -8.323849 -8.135359 8.318361
LeftArm -58.054628 77.995529 -96.887513
LeftForeArm 25.017376 -0.000000 118.009468
LeftHand -0.579763 -0.000000 16.692727
LeftHandThumb1 -26.253704 0.000000 33.147579
RightShoulder -11.912761 -28.189116 -2.329846
RightArm 27.156404 -56.561996 37.573558
RightForeArm -40.523596 -0.000000 88.372179
RightHand 9.527230 -0.000000 -19.957669
RightHandThumb1 -24.326973 -0.000000 -32.862282
LeftUpLeg 1.000352 17.207635 10.113265
LeftLeg -7.422119 -0.000000 0.000000
LeftFoot -18.361657 27.256228 -12.787859
LeftToeBase 28.761565 -0.000000 -0.000000
RightUpLeg -1.462930 -3.864293 6.418633
RightLeg -2.757461 -0.000000 0.000000
RightFoot -19.728048 -20.548837 15.188781
RightToeBase 24.798583 -0.000000 -0.000000
289
root 21.693670 35.420632 -20.564102 -172.172385 2.801494 185.409720
Spine -9.260744 3.159067 -29.549549
Head 2.109387 -19.661076 -4.349802
LeftShoulder -8.278759 -8.126859 8.305855
LeftArm -57.613418 77.955918 -96.372167
LeftForeArm 24.970592 -0.000000 118.278910
LeftHand -0.496870 -0.000000 16.656893
LeftHandThumb1 -26.253704 0.000000 33.147579
RightShoulder -11.815091 -27.993049 -2.495635
RightArm 27.176304 -56.914037 37.763664
RightForeArm -40.683478 -0.000000 88.048768
RightHand 9.491779 0.000000 -20.396330
RightHandThumb1 -24.326973 -0.000000 -32.862282
LeftUpLeg 1.075114 17.271517 10.238569
LeftLeg -7.441955 -0.000000 0.000000
LeftFoot -18.355187 27.243139 -12.791842
LeftToeBase 28.758168 -0.000000 -0.000000
RightUpLeg -1.449591 -3.833268 6.510812
RightLeg -2.705108 -0.000000 0.000000
RightFoot -19.707348 -20.474559 15.240096
RightToeBase 24.769632 -0.000000 -0.000000
290
root 21.714834 35.418951 -20.564293 -172.227422 2.863082 185.490158
Spine -9.232786 3.312356 -30.037003
Head 2.255887 -20.041510 -4.441025
LeftShoulder -8.202215 -8.162568 8.336910
LeftArm -57.358072 77.825304 -96.049115
LeftForeArm 25.031539 -0.000000 118.583689
LeftHand -0.734004 -0.000000 16.443614
LeftHandThumb1 -26.253704 0.000000 33.147579
RightShoulder -11.661024 -27.961971 -2.677113
RightArm 27.242344 -57.124641 38.001902
RightForeArm -40.799576 0.000000 87.699292
RightHand 9.325467 -0.000000 -20.980235
RightHandThumb1 -24.326973 -0.000000 -32.862282
LeftUpLeg 1.174219 17.371276 10.370952
LeftLeg -7.470969 -0.000000 0.000000
LeftFoot -18.353794 27.225354 -12.775429
LeftToeBase 28.819742 -0.000000 -0.000000
RightUpLeg -1.412170 -3.802439 6.609843
RightLeg -2.660849 -0.000000 0.000000
RightFoot -19.699390 -20.402881 15.259280
RightToeBase 24.874740 -0.000000 -0.000000
291
root 21.733322 35.418468 -20.562677 -172.262041 2.943218 185.560025
Spine -9.219694 3.535966 -30.553590
Head 2.374700 -20.547576 -4.506256
LeftShoulder -8.091705 -8.219361 8.365115
LeftArm -57.055050 77.706565 -95.683822
LeftForeArm 25.203572 -0.000000 118.856379
LeftHand -0.745596 0.000000 16.243581
LeftHandThumb1 -26.253704 0.000000 33.147579
RightShoulder -11.652325 -28.130235 -2.704649
RightArm 27.569478 -57.188909 37.934152
RightForeArm -41.132683 -0.000000 87.377637
RightHand 9.171698 -0.000000 -21.534851
RightHandThumb1 -24.326973 -0.000000 -32.862282
LeftUpLeg 1.246107 17.409842 10.490570
LeftLeg -7.472538 -0.000000 0.000000
LeftFoot -18.375732 27.231823 -12.803666
LeftToeBase 28.806113 -0.000000 -0.000000
RightUpLeg -1.406269 -3.763466 6.692190
RightLeg -2.597911 -0.000000 0.000000
RightFoot -19.690054 -20.336412 15.271085
RightToeBase 24.775061 -0.000000 -0.000000
292
root 21.754217 35.418070 -20.556624 -172.269002 3.071631 185.644892
Spine -9.260631 3.735947 -31.051934
Head 2.476198 -20.904752 -4.588089
LeftShoulder -8.033704 -8.214144 8.420967
LeftArm -56.657998 77.617638 -95.272849
LeftForeArm 25.264912 -0.000000 119.116827
LeftHand -0.883033 -0.000000 16.177599
LeftHandThumb1 -26.253704 0.000000 33.147579
RightShoulder -11.548384 -28.086366 -2.833749
RightArm 27.576019 -57.379821 38.172321
RightForeArm -41.365931 -0.000000 87.052345
RightHand 9.344864 -0.000000 -21.841643
RightHandThumb1 -24.326973 -0.000000 -32.862282
LeftUpLeg 1.299778 17.521559 10.615395
LeftLeg -7.479287 -0.000000 0.000000
LeftFoot -18.375595 27.238262 -12.794801
LeftToeBase 28.894220 -0.000000 -0.000000
RightUpLeg -1.439665 -3.635041 6.783443
RightLeg -2.517334 -0.000000 0.000000
RightFoot -19.632943 -20.309536 15.198318
RightToeBase 24.728272 -0.000000 -0.000000
293
root 21.773781 35.417268 -20.556688 -172.341572 3.165224 185.736144
Spine -9.221474 3.949264 -31.518071
Head 2.581615 -21.218251 -4.728263
LeftShoulder -7.962406 -8.183518 8.430896
LeftArm -56.044386 77.539034 -94.613409
LeftForeArm 25.369208 0.000000 119.383112
LeftHand -1.041891 -0.000000 16.051058
LeftHandThumb1 -26.253704 0.000000 33.147579
RightShoulder -11.471256 -28.099596 -2.944421
RightArm 27.667395 -57.530623 38.333893
RightForeArm -41.563806 0.000000 86.740007
RightHand 9.382586 0.000000 -22.192584
RightHandThumb1 -24.326973 -0.000000 -32.862282
LeftUpLeg 1.428974 17.637046 10.759612
LeftLeg -7.508596 -0.000000 0.000000
LeftFoot -18.396727 27.227601 -12.796628
LeftToeBase 28.888120 -0.000000 -0.000000
RightUpLeg -1.400760 -3.629961 6.887999
RightLeg -2.439217 -0.000000 0.000000
RightFoot -19.624411 -20.207673 15.237533
RightToeBase 24.737731 -0.000000 -0.000000
294
root 21.790861 35.416648 -20.556539 -172.376473 3.255444 185.809491
Spine -9.230623 4.099438 -31.997880
Head 2.694288 -21.605787 -4.828242
LeftShoulder -7.899525 -8.271235 8.478020
LeftArm -56.024949 77.356479 -94.534157
LeftForeArm 25.543668 -0.000000 119.655054
LeftHand -1.124558 -0.000000 15.713668
LeftHandThumb1 -26.253704 0.000000 33.147579
RightShoulder -11.385318 -28.081130 -3.050959
RightArm 27.801216 -57.739888 38.414770
RightForeArm -41.749885 -0.000000 86.452672
RightHand 9.355433 -0.000000 -22.682347
RightHandThumb1 -24.326973 -0.000000 -32.862282
LeftUpLeg 1.518206 17.635667 10.880924
LeftLeg -7.528230 -0.000000 0.000000
LeftFoot -18.400304 27.294911 -12.808959
LeftToeBase 28.865973 -0.000000 -0.000000
RightUpLeg -1.387991 -3.590690 6.968622
RightLeg -2.382102 -0.000000 0.000000
RightFoot -19.610314 -20.114830 15.261725
RightToeBase 24.718827 -0.000000 -0.000000
295
root 21.808384 35.416558 -20.557210 -172.419120 3.355081 185.892140
Spine -9.256850 4.294245 -32.467478
Head 2.869762 -21.922673 -4.989370
LeftShoulder -7.817772 -8.236112 8.509677
LeftArm -55.684901 77.288317 -94.178945
LeftForeArm 25.461822 -0.000000 119.908287
LeftHand -1.239489 -0.000000 15.719274
LeftHandThumb1 -26.253704 0.000000 33.147579
RightShoulder -11.304724 -28.050312 -3.156523
RightArm 27.801143 -57.943747 38.634087
RightForeArm -41.959709 -0.000000 86.172912
RightHand 9.292740 -0.000000 -23.075744
RightHandThumb1 -24.326973 -0.000000 -32.862282
LeftUpLeg 1.619672 17.666181 11.012429
LeftLeg -7.548491 -0.000000 0.000000
LeftFoot -18.431381 27.342709 -12.848483
LeftToeBase 28.847595 -0.000000 -0.000000
RightUpLeg -1.369806 -3.555895 7.059279
RightLeg -2.316938 -0.000000 0.000000
RightFoot -19.597327 -20.004623 15.315527
RightToeBase 24.696639 -0.000000 -0.000000
296
root 21.827033 35.416594 -20.558842 -172.462847 3.462901 185.981402
Spine -9.261366 4.489229 -32.926617
Head 2.946341 -22.225725 -5.118752
LeftShoulder -7.790209 -8.336668 8.568239
LeftArm -55.540844 77.178355 -93.991182
LeftForeArm 25.547337 -0.000000 120.138828
LeftHand -1.274343 0.000000 15.457413
LeftHandThumb1 -26.253704 0.000000 33.147579
RightShoulder -11.331390 -28.094902 -3.184520
RightArm 28.114242 -58.122663 38.516142
RightForeArm -41.959471 -0.000000 85.913023
RightHand 9.035324 -0.000000 -23.639835
RightHandThumb1 -24.326973 -0.000000 -32.862282
LeftUpLeg 1.735550 17.690469 11.151307
LeftLeg -7.588911 -0.000000 0.000000
LeftFoot -18.444924 27.423163 -12.863159
LeftToeBase 28.935057 -0.000000 -0.000000
RightUpLeg -1.350572 -3.525467 7.159435
RightLeg -2.247862 -0.000000 0.000000
RightFoot -19.580227 -19.934517 15.397399
RightToeBase 24.705416 -0.000000 -0.000000
297
root 21.843712 35.416940 -20.558870 -172.500434 3.576861 186.061074
Spine -9.310993 4.673796 -33.383835
Head 3.135485 -22.552647 -5.335227
LeftShoulder -7.671302 -8.371432 8.591960
LeftArm -55.156705 76.962321 -93.530154
LeftForeArm 25.757229 -0.000000 120.369761
LeftHand -1.315279 -0.000000 15.068083
LeftHandThumb1 -26.253704 0.000000 33.147579
RightShoulder -11.280273 -28.065469 -3.278430
RightArm 28.217202 -58.328014 38.625168
RightForeArm -42.109956 -0.000000 85.673734
RightHand 8.949660 -0.000000 -23.845656
RightHandThumb1 -24.326973 -0.000000 -32.862282
LeftUpLeg 1.836383 17.740554 11.274487
LeftLeg -7.611744 -0.000000 0.000000
LeftFoot -18.469509 27.472246 -12.900587
LeftToeBase 28.896217 -0.000000 -0.000000
RightUpLeg -1.345686 -3.506288 7.248288
RightLeg -2.173365 -0.000000 0.000000
RightFoot -19.542850 -19.795461 15.514371
RightToeBase 24.662573 -0.000000 -0.000000
